:SAMPLES-PER-SECOND 24
:FULLY-SPECIFIED
:DEGREES
347
root  -0.883849 39.2814 30.7963 -178.467 61.4899 -178.261
RightUpLeg  0.0406317 -18.7273 -18.0308
RightLeg  29.1868 5.02915 2.8066
RightFoot  -0.81968 -1.46261 15.7164
RightToes  -1.74623e-010 0 -2.59999e-017
Spine  5.54725 3.63177 0.677143
Spine1  16.4965 4.46492 -3.77879
HEad  -26.542 45.8989 -27.9405
LeftShoulder1  2.0954 -3.77247 -22.4961
LeftArm  11.8491 10.9697 -38.8975
LeftForeArm  17.6807 -53.5789 -13.84
LeftHand  0.0650855 6.15682 12.5558
RightShoulder  2.59002 4.61481 25.873
RightArm  13.0699 16.4943 50.503
RightForeArm  152.588 59.1257 161.832
RightHand  -0.0313743 -6.88544 -0.500191
LeftUpLeg  -11.7117 14.1164 8.52029
LeftLeg  19.2262 6.70073 1.66482
LeftFoot  -2.24349 0.610282 -7.49659
LeftToes  -6.27559e-011 -2.10356e-011 8.24929e-012
348
root  -1.06305 38.9905 31.0354 -178.548 63.4507 -178.495
RightUpLeg  0.928099 -19.8011 -17.9006
RightLeg  30.497 4.28715 2.49513
RightFoot  -4.14613 -1.13211 17.4287
RightToes  -1.74623e-010 0 -2.59999e-017
Spine  5.16277 3.97202 2.06905
Spine1  16.2705 5.31841 -4.97727
HEad  -25.7073 46.0506 -27.6176
LeftShoulder1  2.06433 -3.72373 -22.246
LeftArm  12.7674 13.384 -39.0924
LeftForeArm  15.5244 -51.0649 -12.7201
LeftHand  -0.0247867 5.30875 11.4774
RightShoulder  2.53646 4.5377 25.4965
RightArm  11.6767 18.8672 50.4343
RightForeArm  146.76 59.3352 161.18
RightHand  -0.0129734 -6.11292 -2.80429
LeftUpLeg  -13.7766 17.6749 8.08307
LeftLeg  22.7784 4.71759 2.51906
LeftFoot  -3.6444 0.532369 -7.5826
LeftToes  -6.27559e-011 -2.10356e-011 8.24929e-012
349
root  -1.30319 38.3265 31.3222 -178.719 64.8862 -178.364
RightUpLeg  2.04055 -21.1616 -17.8685
RightLeg  30.092 4.21269 2.40273
RightFoot  -10.6887 -0.178748 17.736
RightToes  -1.74623e-010 0 -2.59999e-017
Spine  6.08486 4.07172 3.90255
Spine1  15.123 5.93016 -5.94058
HEad  -24.738 45.8854 -27.2542
LeftShoulder1  2.05656 -3.79263 -21.8468
LeftArm  14.0816 13.998 -40.1346
LeftForeArm  13.1428 -46.3901 -10.8389
LeftHand  -0.0650595 4.88173 11.3167
RightShoulder  2.48586 4.48697 25.0431
RightArm  9.70614 20.118 50.1874
RightForeArm  142.104 61.4581 159.17
RightHand  -0.0179395 -5.57501 -5.00361
LeftUpLeg  -17.3361 18.4776 8.56082
LeftLeg  29.9612 4.73282 3.29952
LeftFoot  -5.87027 0.410789 -7.86074
LeftToes  -6.27559e-011 -2.10356e-011 8.24929e-012
350
root  -1.66841 37.3006 31.6488 -178.412 67.2457 -177.115
RightUpLeg  0.817113 -20.6717 -17.3823
RightLeg  32.938 4.81132 3.10809
RightFoot  -18.3483 0.894741 16.616
RightToes  -1.74623e-010 0 -2.59999e-017
Spine  7.87968 4.19532 6.37263
Spine1  14.6839 6.74297 -7.1849
HEad  -25.9087 45.7302 -28.8298
LeftShoulder1  2.03745 -3.72095 -21.8621
LeftArm  16.057 12.4277 -41.3469
LeftForeArm  9.98859 -40.4295 -8.90475
LeftHand  -0.0884163 4.64443 11.5274
RightShoulder  2.48276 4.5492 24.7494
RightArm  7.32381 22.2077 49.1546
RightForeArm  140.798 64.7054 156.109
RightHand  -0.0175785 -5.48637 -7.03689
LeftUpLeg  -21.1309 20.206 9.90498
LeftLeg  38.8914 4.16856 3.98346
LeftFoot  -9.00338 0.225504 -8.44279
LeftToes  -6.27559e-011 -2.10356e-011 8.24929e-012
351
root  -2.08751 36.251 31.8666 -178.905 70.6422 -176.891
RightUpLeg  -3.17236 -19.7322 -17.909
RightLeg  40.0903 6.59727 5.68535
RightFoot  -23.9092 1.51094 15.1413
RightToes  -1.74623e-010 0 -2.59999e-017
Spine  8.82067 4.0539 8.20184
Spine1  16.0246 7.41821 -8.9968
HEad  -30.2222 46.543 -32.7514
LeftShoulder1  2.00871 -3.41782 -22.7325
LeftArm  18.721 9.92287 -42.0675
LeftForeArm  6.35047 -33.7687 -7.16166
LeftHand  -0.0837613 4.71894 11.9823
RightShoulder  2.51518 4.66272 24.7158
RightArm  6.27867 24.9243 48.8621
RightForeArm  141.422 69.0481 150.894
RightHand  0.0904792 -7.06978 -8.24716
LeftUpLeg  -24.0404 22.6351 10.7505
LeftLeg  46.4899 4.00022 4.94888
LeftFoot  -11.9563 0.0226097 -9.00964
LeftToes  -6.27559e-011 -2.10356e-011 8.24929e-012
352
root  -2.27621 35.8201 31.791 178.874 72.6689 -178.965
RightUpLeg  -5.20092 -20.3346 -19.7514
RightLeg  43.7398 8.54877 8.38629
RightFoot  -25.1422 1.57885 14.3953
RightToes  -1.74623e-010 0 -2.59999e-017
Spine  8.31915 3.44281 8.13374
Spine1  17.336 6.95118 -9.4765
HEad  -33.9883 48.4296 -36.217
LeftShoulder1  2.02366 -3.24916 -23.7271
LeftArm  22.7099 9.39123 -43.253
LeftForeArm  1.5825 -27.2347 -5.78254
LeftHand  -0.0192884 5.34864 13.8361
RightShoulder  2.61857 4.81291 25.4351
RightArm  7.72429 22.683 49.3401
RightForeArm  142.37 72.5176 145.116
RightHand  0.349063 -10.3502 -9.07774
LeftUpLeg  -24.7591 23.68 10.1648
LeftLeg  49.1742 4.48142 6.00195
LeftFoot  -13.0808 -0.0591844 -9.03713
LeftToes  -6.27559e-011 -2.10356e-011 8.24929e-012
